PathFileType	4	(X/Y/Z)	C:\Users\willi\Desktop\Data_PaperCallum_v2\17_Akif\Gait02\marker_experimental_temp.trc
DataRate	CameraRate	NumFrames	NumMarkers	Units	OrigDataRate	OrigDataStartFrame	OrigNumFrames
100.000000	100.000000	4	27	mm	100.000000	0	167
Frame#	Time	C7			T10			Clav			Sternum			Right_Back			PCL_CRAN			PCL_RECHTS			PCL_LINKS			RCL_UL_CRAN			RCL_UL_POST			RCL_UL_ANT			RCL_LL_CRAN			RCL_LL_POST			RCL_LL_ANT			Right_Heel			Right_Toe			Right_M5			LCL_UL_CRAN			LCL_UL_POST			LCL_UL_ANT			LCL_LL_CRAN			LCL_LL_POST			LCL_LL_ANT			Left_Heel			Left_Toe			Left_M5			*26			
		X1	Y1	Z1	X2	Y2	Z2	X3	Y3	Z3	X4	Y4	Z4	X5	Y5	Z5	X6	Y6	Z6	X7	Y7	Z7	X8	Y8	Z8	X9	Y9	Z9	X10	Y10	Z10	X11	Y11	Z11	X12	Y12	Z12	X13	Y13	Z13	X14	Y14	Z14	X15	Y15	Z15	X16	Y16	Z16	X17	Y17	Z17	X18	Y18	Z18	X19	Y19	Z19	X20	Y20	Z20	X21	Y21	Z21	X22	Y22	Z22	X23	Y23	Z23	X24	Y24	Z24	X25	Y25	Z25	X26	Y26	Z26	X27	Y27	Z27	

1	0	1515.773071289063	1408.748657226563	165.9067993164062	1561.68359375	1193.34521484375	165.3898773193359	1378.327392578125	1330.800659179688	183.3136291503905	1324.321044921875	1165.581420898438	197.029800415039	1538.61376953125	1348.530151367188	45.72463607788077	1553.93212890625	1018.037536621094	167.006118774414	1562.185913085938	958.8423461914064	142.0628204345702	1563.203247070313	957.6800537109376	192.7081604003905	1461.86376953125	724.2512817382814	4.326725959777742	1485.404052734375	663.8809814453126	13.02992820739737	1435.481323242188	663.9839477539064	7.130283832549961	1554.425415039063	377.6250305175782	43.68753814697256	1587.989379882813	321.5260009765626	42.74534225463857	1538.564697265625	314.0529174804689	46.40462493896475	1663.435791015625	38.1452751159669	130.4345245361327	1461.62255859375	34.0651741027833	121.0752563476562	1510.034301757813	12.55752658844003	63.77984619140616	1385.77099609375	758.9677734375001	348.6196289062499	1374.014038085938	693.7573852539064	343.5554809570312	1331.672729492188	720.5882568359376	348.8380432128906	1313.419311523438	390.1349182128907	331.3912658691406	1333.399658203125	328.0697631835938	327.0789184570312	1282.427001953125	332.3317871093751	329.0256347656249	1346.194458007813	32.77248382568368	236.609649658203	1156.9892578125	61.32228088378913	288.0113830566406	1203.675903320313	31.33707618713386	332.3270874023437	-88.08219909667993	726.5069580078125	-3209.645263671875	
2	0.01	1502.693725585938	1405.48828125	166.122344970703	1549.096313476563	1190.446044921875	166.3270568847655	1365.349975585938	1327.243408203125	184.1170959472655	1311.805541992188	1162.111206054688	197.7701110839843	1525.089111328125	1345.365966796875	45.75298309326163	1541.73876953125	1014.698486328125	168.6488494873046	1550.0048828125	955.6628417968751	143.3166198730468	1550.716796875	954.0754394531251	193.9605102539062	1451.776000976563	722.8805541992189	4.666015624999911	1476.004516601563	662.8735351562501	13.36071491241446	1426.028930664063	662.3917236328126	8.023488998412999	1549.369018554688	377.5307922363282	44.05065536499014	1584.0458984375	322.0123596191407	43.12270355224599	1534.756958007813	313.7800598144532	46.72748565673819	1663.266845703125	38.68224716186533	131.1588287353514	1461.57080078125	33.99100112915048	121.0119171142577	1510.226806640625	12.59561252594003	63.79232406616202	1375.2392578125	754.5653686523439	348.9998779296874	1364.17138671875	689.8254394531251	343.0079650878906	1321.793823242188	715.7711791992189	348.5517578124999	1294.418090820313	387.5521850585938	330.1466064453124	1310.377807617188	324.3953857421876	326.8325805664062	1260.262573242188	331.5364685058594	328.4012756347656	1300.590454101563	30.7604179382325	238.9401397705077	1113.494995117188	70.02474212646491	288.8962097167968	1157.6953125	37.19961166381843	333.2556457519531	-88.08153533935571	726.5043334960938	-3209.634765625	
3	0.02	1489.538696289063	1402.392944335938	166.4568634033202	1536.334716796875	1187.652954101563	167.3017425537109	1352.263305664063	1323.901611328125	184.9886169433593	1299.092895507813	1158.84619140625	198.5709075927734	1511.5341796875	1342.341430664063	45.9209213256835	1529.283569335938	1011.528076171875	170.2342987060546	1537.5625	952.6290893554689	144.5721282958984	1538.004150390625	950.6820068359376	195.2138214111327	1441.562133789063	721.5159912109376	4.989611148834141	1466.453979492188	661.8566284179689	13.64095973968497	1416.4443359375	660.8027954101564	8.736604690551671	1543.968017578125	377.4439697265626	44.32677459716788	1579.73779296875	322.5500488281251	43.38764190673818	1530.594604492188	313.512908935547	46.9945182800292	1663.053955078125	39.52104949951182	131.7131195068358	1461.531127929688	33.91094589233408	120.9443969726562	1510.406982421875	12.62650299072275	63.81110382080069	1364.1630859375	750.4234619140626	349.5039672851562	1353.935791015625	685.9917602539064	343.0416564941406	1311.402221679688	711.1410522460939	348.6660766601562	1275.714721679688	385.1727600097657	329.0555114746093	1287.925415039063	321.1699218750001	326.6134948730468	1238.63916015625	331.0422058105469	327.8648681640624	1258.31494140625	29.23069572448738	240.8810577392577	1073.249755859375	78.44752502441413	289.1972656249999	1115.071044921875	43.05517196655281	333.6448974609374	-88.08088684082055	726.5017700195313	-3209.62451171875	
4	0.03	1476.307861328125	1399.463012695313	166.9102478027343	1523.398803710938	1184.966430664063	168.3137817382812	1339.0673828125	1320.775634765625	185.9280853271484	1286.182983398438	1155.786987304688	199.4320526123046	1497.948974609375	1339.457153320313	46.22834014892569	1516.566650390625	1008.527221679688	171.7622680664062	1524.85888671875	949.7418212890626	145.8292236328124	1525.065551757813	947.5003662109376	196.4680175781249	1431.221435546875	720.1583251953126	5.299599647521885	1456.751220703125	660.8307495117189	13.87589359283438	1406.726928710938	659.2185058593751	9.269996643066321	1538.223388671875	377.3655090332032	44.5160255432128	1575.062866210938	323.1390991210939	43.54159927368154	1526.078002929688	313.2524414062501	47.20331573486319	1662.796264648438	40.66590118408213	132.0923614501952	1461.502563476563	33.82572174072275	120.8723831176757	1510.57373046875	12.65116786956796	63.83557891845694	1352.5380859375	746.5460205078126	350.1296081542968	1343.283325195313	682.2671508789064	343.6365356445312	1300.484008789063	706.7106323242189	349.1706542968749	1257.3134765625	382.9913330078126	328.1144714355468	1266.056762695313	318.3821716308594	326.4232482910156	1217.5576171875	330.8313293457032	327.4114990234374	1219.409301757813	28.13867759704597	242.4282684326171	1036.281372070313	86.52590179443365	288.9020996093749	1075.832885742188	48.84144210815436	333.4889526367187	-88.0802383422854	726.4992065429688	-3209.6142578125	
